<svg width="48" height="48" viewBox="0 0 48 48" fill="none" xmlns="http://www.w3.org/2000/svg">
<path id="svg" d="M10 24.8582V23.1418C10 21.988 10.9354 21.0526 12.0892 21.0526C13.8741 21.0526 14.837 18.959 13.6754 17.6038L13.5311 17.4354C12.7859 16.566 12.8357 15.2696 13.6453 14.4599L14.4599 13.6453C15.2695 12.8357 16.566 12.7859 17.4354 13.5311L17.6038 13.6754C18.959 14.837 21.0526 13.8741 21.0526 12.0892C21.0526 10.9354 21.988 10 23.1418 10H24.8582C26.012 10 26.9474 10.9354 26.9474 12.0892C26.9474 13.8741 29.041 14.837 30.3962 13.6754L30.5646 13.5311C31.434 12.7859 32.7304 12.8357 33.5401 13.6453L34.3547 14.4599C35.1643 15.2695 35.2141 16.566 34.4689 17.4354L34.3246 17.6038C33.163 18.959 34.1259 21.0526 35.9108 21.0526C37.0646 21.0526 38 21.988 38 23.1418V24.8582C38 26.012 37.0646 26.9474 35.9108 26.9474C34.1259 26.9474 33.163 29.041 34.3246 30.3962L34.4689 30.5646C35.2141 31.434 35.1643 32.7304 34.3547 33.5401L33.5401 34.3547C32.7304 35.1643 31.434 35.2141 30.5646 34.4689L30.3962 34.3246C29.041 33.163 26.9474 34.1259 26.9474 35.9108C26.9474 37.0646 26.012 38 24.8582 38H23.1418C21.988 38 21.0526 37.0646 21.0526 35.9108C21.0526 34.1259 18.959 33.163 17.6038 34.3246L17.4354 34.4689C16.566 35.2141 15.2696 35.1643 14.4599 34.3547L13.6453 33.5401C12.8357 32.7304 12.7859 31.434 13.5311 30.5646L13.6754 30.3962C14.837 29.041 13.8741 26.9474 12.0892 26.9474C10.9354 26.9474 10 26.012 10 24.8582Z" stroke="white" stroke-width="2" stroke-linecap="round"/>
<path id="svg" d="M29 24C29 26.7614 26.7614 29 24 29C21.2386 29 19 26.7614 19 24C19 21.2386 21.2386 19 24 19C26.7614 19 29 21.2386 29 24Z" stroke="white" stroke-width="2"/>
</svg>
